
<svg version="1" xmlns="http://www.w3.org/2000/svg" width="1000" viewBox="-50 -10 200 130">
	<style>
  .axis {
    stroke: #555;
    stroke-width: .2;
  }
  .scale {
    fill: #f0f0f0;
    stroke: #999;
    stroke-width: .2;
  }
  .shape {
    fill-opacity: .5;
    stroke-width: .5;
  }
	.shape:hover {
			fill-opacity: .6;
    }
    .shape.ideal{
      fill:#00a0b0;
      stroke:#00a0b0;
    }
  .shape.current{
    fill:#cc333f;
  }
	</style>
	<g transform="translate(50.0000,50.0000)"><g><circle class="scale" fill="none" r="41.66666666666667"></circle><circle class="scale" fill="none" r="27.77777777777778"></circle><circle class="scale" fill="none" r="13.88888888888889"></circle></g><g><polyline class="axis" points="0.0000,0.0000 0.0000,-41.6667"></polyline><polyline class="axis" points="0.0000,0.0000 32.5763,-25.9787"></polyline><polyline class="axis" points="0.0000,0.0000 40.6220,9.2717"></polyline><polyline class="axis" points="0.0000,0.0000 18.0785,37.5404"></polyline><polyline class="axis" points="0.0000,0.0000 -18.0785,37.5404"></polyline><polyline class="axis" points="0.0000,0.0000 -40.6220,9.2717"></polyline><polyline class="axis" points="0.0000,0.0000 -32.5763,-25.9787"></polyline></g><g><path class="shape ideal" d="M32.576311769501245,-25.978741744113897C35.2844448588952,-22.582850260901914,41.588517850216185,5.037098165509899,40.62199634090932,9.271705581513102C39.655474831602454,13.506312997516304,21.991854827952096,35.655791901639404,18.07848912989826,37.54036949593414C14.165123431844421,39.42494709022887,-14.165123431844417,39.42494709022887,-18.078489129898255,37.54036949593414C-21.991854827952093,35.655791901639404,-39.655474831602454,13.506312997516307,-40.62199634090932,9.271705581513105C-41.588517850216185,5.037098165509903,-35.284444858895206,-22.582850260901907,-32.57631176950125,-25.978741744113893C-29.8681786801073,-29.37463322732588,-4.343508235933497,-41.66666666666667,2.551347498223653e-15,-41.66666666666667C4.343508235933502,-41.66666666666667,29.86817868010729,-29.37463322732588,32.576311769501245,-25.978741744113897"></path><path class="shape current" d="M26.061049415600994,-20.78299339529112C28.769182504994948,-17.94265746763469,41.39521354835481,5.88401964871054,40.62199634090932,9.271705581513102C39.84877913346383,12.659391514315663,18.376157001972445,28.14771800245257,14.462791303918607,30.032295596747307C10.54942560586477,31.916873191042043,-15.489423189333975,39.171654312456766,-18.078489129898255,37.54036949593414C-20.667555070462534,35.90908467941151,-23.841027118832077,9.451247541656214,-24.373197804545594,5.563023348907864C-24.90536849025911,1.674799156159514,-27.68592926923737,-18.189902949808367,-26.061049415600998,-20.782993395291115C-24.436169561964626,-23.376083840773862,-3.4748065887467976,-33.333333333333336,2.0410779985789223e-15,-33.333333333333336C3.474806588746802,-33.333333333333336,23.35291632620704,-23.623329322947548,26.061049415600994,-20.78299339529112"></path></g><g><text class="caption" text-anchor="middle" font-size="3" font-family="sans-serif" x="0.0000" y="-47.5000" dy="1.5">Privacy/Data Protection Notices &amp; Policies</text><text class="caption" text-anchor="middle" font-size="3" font-family="sans-serif" x="37.1370" y="-29.6158" dy="1.5">Staff Data Protection</text><text class="caption" text-anchor="middle" font-size="3" font-family="sans-serif" x="46.3091" y="10.5697" dy="1.5">Risk Assessment</text><text class="caption" text-anchor="middle" font-size="3" font-family="sans-serif" x="20.6095" y="42.7960" dy="1.5">Data Protection Officer</text><text class="caption" text-anchor="middle" font-size="3" font-family="sans-serif" x="-20.6095" y="42.7960" dy="1.5">Security</text><text class="caption" text-anchor="middle" font-size="3" font-family="sans-serif" x="-46.3091" y="10.5697" dy="1.5">Governance</text><text class="caption" text-anchor="middle" font-size="3" font-family="sans-serif" x="-37.1370" y="-29.6158" dy="1.5">Compliance</text></g></g>
</svg>
