
<svg version="1" xmlns="http://www.w3.org/2000/svg" width="1000" viewBox="-50 -10 200 130">
	<style>
  .axis {
    stroke: #555;
    stroke-width: .2;
  }
  .scale {
    fill: #f0f0f0;
    stroke: #999;
    stroke-width: .2;
  }
  .shape {
    fill-opacity: .5;
    stroke-width: .5;
  }
	.shape:hover {
			fill-opacity: .6;
    }
    .shape.ideal{
      fill:#00a0b0;
      stroke:#00a0b0;
    }
  .shape.current{
    fill:#cc333f;
  }
	</style>
	<g transform="translate(50.0000,50.0000)"><g><circle class="scale" fill="none" r="41.66666666666667"></circle><circle class="scale" fill="none" r="27.77777777777778"></circle><circle class="scale" fill="none" r="13.88888888888889"></circle></g><g><polyline class="axis" points="0.0000,0.0000 0.0000,-41.6667"></polyline><polyline class="axis" points="0.0000,0.0000 32.5763,-25.9787"></polyline><polyline class="axis" points="0.0000,0.0000 40.6220,9.2717"></polyline><polyline class="axis" points="0.0000,0.0000 18.0785,37.5404"></polyline><polyline class="axis" points="0.0000,0.0000 -18.0785,37.5404"></polyline><polyline class="axis" points="0.0000,0.0000 -40.6220,9.2717"></polyline><polyline class="axis" points="0.0000,0.0000 -32.5763,-25.9787"></polyline></g><g><path class="shape ideal" d="M32.576311769501245,-25.978741744113897C35.2844448588952,-22.582850260901914,41.588517850216185,5.037098165509899,40.62199634090932,9.271705581513102C39.655474831602454,13.506312997516304,21.991854827952096,35.655791901639404,18.07848912989826,37.54036949593414C14.165123431844421,39.42494709022887,-14.165123431844417,39.42494709022887,-18.078489129898255,37.54036949593414C-21.991854827952093,35.655791901639404,-39.655474831602454,13.506312997516307,-40.62199634090932,9.271705581513105C-41.588517850216185,5.037098165509903,-35.284444858895206,-22.582850260901907,-32.57631176950125,-25.978741744113893C-29.8681786801073,-29.37463322732588,-4.343508235933497,-41.66666666666667,2.551347498223653e-15,-41.66666666666667C4.343508235933502,-41.66666666666667,29.86817868010729,-29.37463322732588,32.576311769501245,-25.978741744113897"></path><path class="shape current" d="M39.09157412340149,-31.17449009293668C39.633200741280284,-27.16197846296095,10.007364644546033,-1.7255730030638572,8.124399268181865,1.85434111630262C6.241433891817696,5.434255235669097,11.8708131392817,21.646767918755746,10.847093477938955,22.52422169756048C9.823373816596211,23.401675476365217,-4.341749615248208,16.023271613863653,-7.231395651959302,15.016147798373654C-10.121041688670395,14.009023982883654,-30.80793599822466,10.150357101376322,-32.49759707272746,7.417364465210484C-34.18725814723025,4.684371829044648,-34.742818241016415,-21.59536189087764,-32.57631176950125,-25.978741744113893C-30.40980529798609,-30.362121597350146,-4.777859059526846,-57.98695011007848,3.571886497513114e-15,-58.333333333333336C4.777859059526853,-58.67971655658819,38.5499475055227,-35.18700172291241,39.09157412340149,-31.17449009293668"></path></g><g><text class="caption" text-anchor="middle" font-size="3" font-family="sans-serif" x="0.0000" y="-47.5000" dy="1.5">Privacy/Data Protection Notices &amp; Policies</text><text class="caption" text-anchor="middle" font-size="3" font-family="sans-serif" x="37.1370" y="-29.6158" dy="1.5">Staff Data Protection</text><text class="caption" text-anchor="middle" font-size="3" font-family="sans-serif" x="46.3091" y="10.5697" dy="1.5">Risk Assessment</text><text class="caption" text-anchor="middle" font-size="3" font-family="sans-serif" x="20.6095" y="42.7960" dy="1.5">Data Protection Officer</text><text class="caption" text-anchor="middle" font-size="3" font-family="sans-serif" x="-20.6095" y="42.7960" dy="1.5">Security</text><text class="caption" text-anchor="middle" font-size="3" font-family="sans-serif" x="-46.3091" y="10.5697" dy="1.5">Governance</text><text class="caption" text-anchor="middle" font-size="3" font-family="sans-serif" x="-37.1370" y="-29.6158" dy="1.5">Compliance</text></g></g>
</svg>
