
<svg version="1" xmlns="http://www.w3.org/2000/svg" width="1000" viewBox="-50 -10 200 130">
	<style>
  .axis {
    stroke: #555;
    stroke-width: .2;
  }
  .scale {
    fill: #f0f0f0;
    stroke: #999;
    stroke-width: .2;
  }
  .shape {
    fill-opacity: .5;
    stroke-width: .5;
  }
	.shape:hover {
			fill-opacity: .6;
    }
    .shape.ideal{
      fill:#00a0b0;
      stroke:#00a0b0;
    }
  .shape.current{
    fill:#cc333f;
  }
	</style>
	<g transform="translate(50.0000,50.0000)"><g><circle class="scale" fill="none" r="41.66666666666667"></circle><circle class="scale" fill="none" r="27.77777777777778"></circle><circle class="scale" fill="none" r="13.88888888888889"></circle></g><g><polyline class="axis" points="0.0000,0.0000 0.0000,-41.6667"></polyline><polyline class="axis" points="0.0000,0.0000 32.5763,-25.9787"></polyline><polyline class="axis" points="0.0000,0.0000 40.6220,9.2717"></polyline><polyline class="axis" points="0.0000,0.0000 18.0785,37.5404"></polyline><polyline class="axis" points="0.0000,0.0000 -18.0785,37.5404"></polyline><polyline class="axis" points="0.0000,0.0000 -40.6220,9.2717"></polyline><polyline class="axis" points="0.0000,0.0000 -32.5763,-25.9787"></polyline></g><g><path class="shape ideal" d="M32.576311769501245,-25.978741744113897C35.2844448588952,-22.582850260901914,41.588517850216185,5.037098165509899,40.62199634090932,9.271705581513102C39.655474831602454,13.506312997516304,21.991854827952096,35.655791901639404,18.07848912989826,37.54036949593414C14.165123431844421,39.42494709022887,-14.165123431844417,39.42494709022887,-18.078489129898255,37.54036949593414C-21.991854827952093,35.655791901639404,-39.655474831602454,13.506312997516307,-40.62199634090932,9.271705581513105C-41.588517850216185,5.037098165509903,-35.284444858895206,-22.582850260901907,-32.57631176950125,-25.978741744113893C-29.8681786801073,-29.37463322732588,-4.343508235933497,-41.66666666666667,2.551347498223653e-15,-41.66666666666667C4.343508235933502,-41.66666666666667,29.86817868010729,-29.37463322732588,32.576311769501245,-25.978741744113897"></path><path class="shape current" d="M19.545787061700747,-15.58724504646834C22.2539201510947,-12.74690911881191,40.23772315956553,4.728788092128026,40.62199634090932,9.271705581513102C41.006269522253106,13.814623070898177,29.2232504799114,50.671939700013056,25.309884781857562,52.55651729430779C21.396519083803724,54.44109488860252,-15.849536859895627,40.920514574467816,-18.078489129898255,37.54036949593414C-20.307441399900885,34.16022441740046,-8.460930229655048,5.049798862541268,-8.124399268181865,1.854341116302621C-7.787868306708681,-1.341116629936025,-13.57215132567929,-8.045651734336493,-13.030524707800499,-10.391496697645557C-12.488898089921708,-12.737341660954622,-2.1717541179667474,-32.98695011007848,2.0410779985789223e-15,-33.333333333333336C2.171754117966752,-33.67971655658819,16.837653972306793,-18.42758097412477,19.545787061700747,-15.58724504646834"></path></g><g><text class="caption" text-anchor="middle" font-size="3" font-family="sans-serif" x="0.0000" y="-47.5000" dy="1.5">Privacy/Data Protection Notices &amp; Policies</text><text class="caption" text-anchor="middle" font-size="3" font-family="sans-serif" x="37.1370" y="-29.6158" dy="1.5">Staff Data Protection</text><text class="caption" text-anchor="middle" font-size="3" font-family="sans-serif" x="46.3091" y="10.5697" dy="1.5">Risk Assessment</text><text class="caption" text-anchor="middle" font-size="3" font-family="sans-serif" x="20.6095" y="42.7960" dy="1.5">Data Protection Officer</text><text class="caption" text-anchor="middle" font-size="3" font-family="sans-serif" x="-20.6095" y="42.7960" dy="1.5">Security</text><text class="caption" text-anchor="middle" font-size="3" font-family="sans-serif" x="-46.3091" y="10.5697" dy="1.5">Governance</text><text class="caption" text-anchor="middle" font-size="3" font-family="sans-serif" x="-37.1370" y="-29.6158" dy="1.5">Compliance</text></g></g>
</svg>
