
<svg version="1" xmlns="http://www.w3.org/2000/svg" width="1000" viewBox="-50 -10 200 130">
	<style>
  .axis {
    stroke: #555;
    stroke-width: .2;
  }
  .scale {
    fill: #f0f0f0;
    stroke: #999;
    stroke-width: .2;
  }
  .shape {
    fill-opacity: .5;
    stroke-width: .5;
  }
	.shape:hover {
			fill-opacity: .6;
    }
    .shape.ideal{
      fill:#00a0b0;
      stroke:#00a0b0;
    }
  .shape.current{
    fill:#cc333f;
  }
	</style>
	<g transform="translate(50.0000,50.0000)"><g><circle class="scale" fill="none" r="41.66666666666667"></circle><circle class="scale" fill="none" r="27.77777777777778"></circle><circle class="scale" fill="none" r="13.88888888888889"></circle></g><g><polyline class="axis" points="0.0000,0.0000 0.0000,-41.6667"></polyline><polyline class="axis" points="0.0000,0.0000 32.5763,-25.9787"></polyline><polyline class="axis" points="0.0000,0.0000 40.6220,9.2717"></polyline><polyline class="axis" points="0.0000,0.0000 18.0785,37.5404"></polyline><polyline class="axis" points="0.0000,0.0000 -18.0785,37.5404"></polyline><polyline class="axis" points="0.0000,0.0000 -40.6220,9.2717"></polyline><polyline class="axis" points="0.0000,0.0000 -32.5763,-25.9787"></polyline></g><g><path class="shape ideal" d="M32.576311769501245,-25.978741744113897C35.2844448588952,-22.582850260901914,41.588517850216185,5.037098165509899,40.62199634090932,9.271705581513102C39.655474831602454,13.506312997516304,21.991854827952096,35.655791901639404,18.07848912989826,37.54036949593414C14.165123431844421,39.42494709022887,-14.165123431844417,39.42494709022887,-18.078489129898255,37.54036949593414C-21.991854827952093,35.655791901639404,-39.655474831602454,13.506312997516307,-40.62199634090932,9.271705581513105C-41.588517850216185,5.037098165509903,-35.284444858895206,-22.582850260901907,-32.57631176950125,-25.978741744113893C-29.8681786801073,-29.37463322732588,-4.343508235933497,-41.66666666666667,2.551347498223653e-15,-41.66666666666667C4.343508235933502,-41.66666666666667,29.86817868010729,-29.37463322732588,32.576311769501245,-25.978741744113897"></path><path class="shape current" d="M32.576311769501245,-25.978741744113897C35.2844448588952,-23.138405816457468,42.552703937144095,7.039251205293054,40.62199634090932,9.271705581513102C38.691288744674544,11.50415995773315,6.564877437105583,7.625649344675245,3.6156978259796517,7.508073899186827C0.6665182148537205,7.390498453698409,-2.291398068490092,7.761366676958932,-3.615697825979651,7.508073899186827C-4.93999758346921,7.254781121414721,-15.186792587315656,5.248370162315586,-16.24879853636373,3.708682232605242C-17.3108044854118,2.168994302894898,-20.62904029745833,-13.117777342072431,-19.54578706170075,-15.587245046468336C-18.46253382594317,-18.056712750864243,-3.4748065887467976,-32.640566886823635,2.0410779985789223e-15,-33.333333333333336C3.474806588746802,-34.02609977984304,29.86817868010729,-28.819077671770327,32.576311769501245,-25.978741744113897"></path></g><g><text class="caption" text-anchor="middle" font-size="3" font-family="sans-serif" x="0.0000" y="-47.5000" dy="1.5">Field 1</text><text class="caption" text-anchor="middle" font-size="3" font-family="sans-serif" x="37.1370" y="-29.6158" dy="1.5">Field</text><text class="caption" text-anchor="middle" font-size="3" font-family="sans-serif" x="46.3091" y="10.5697" dy="1.5">Field</text><text class="caption" text-anchor="middle" font-size="3" font-family="sans-serif" x="20.6095" y="42.7960" dy="1.5">Field</text><text class="caption" text-anchor="middle" font-size="3" font-family="sans-serif" x="-20.6095" y="42.7960" dy="1.5">Field</text><text class="caption" text-anchor="middle" font-size="3" font-family="sans-serif" x="-46.3091" y="10.5697" dy="1.5">Field</text><text class="caption" text-anchor="middle" font-size="3" font-family="sans-serif" x="-37.1370" y="-29.6158" dy="1.5">Field</text></g></g>
</svg>
